# xmcd CD database file
#
# Track frame offsets:
#	150
#	16017
#	26211
#	36568
#	48104
#	61749
#	72363
#	85663
#	97999
#	111730
#	123843
#	138664
#	154029
#	169312
#
# Disc length: 2559 seconds
#
# Revision: 0
# Processed by: cddbd v1.5.2PL0 Copyright (c) Steve Scherf et al.
# Submitted via: CDex 1.76
#
DISCID=ba09fd0e
DTITLE=Dave Ferra - The Road To Te Blues
DYEAR=2000
DGENRE=Blues
TTITLE0=Big Boss Man
TTITLE1=Cocaine
TTITLE2=Diddie Wa Diddie
TTITLE3=I Am Blessed
TTITLE4=Now Long
TTITLE5=Honest I Do
TTITLE6=Moose Milk Blues
TTITLE7=I Can`t Be Satisfied
TTITLE8=Preaching Blues
TTITLE9=Love In Vain
TTITLE10=See That My Grave Is Kept Clean
TTITLE11=Keep Your Hands Off Her
TTITLE12=You`ve Got To Move
TTITLE13=Muddy Water
EXTD=YEAR: 2000
EXTT0=
EXTT1=
EXTT2=
EXTT3=
EXTT4=
EXTT5=
EXTT6=
EXTT7=
EXTT8=
EXTT9=
EXTT10=
EXTT11=
EXTT12=
EXTT13=
PLAYORDER=
